{
  "accessors": [
    {
      "bufferView": 2,
      "componentType": 5126,
      "count": 65533,
      "max": [
        19.370677947998047,
        4.7481107711791992,
        4.8163166046142578
      ],
      "min": [
        -18.256149291992188,
        -4.7481169700622559,
        -6.9218840599060059
      ],
      "type": "VEC3"
    },
    {
      "bufferView": 2,
      "byteOffset": 786396,
      "componentType": 5126,
      "count": 65533,
      "max": [
        1,
        1,
        1
      ],
      "min": [
        -1,
        -1,
        -1
      ],
      "type": "VEC3"
    },
    {
      "bufferView": 3,
      "componentType": 5126,
      "count": 65533,
      "max": [
        1,
        1,
        1,
        1
      ],
      "min": [
        0.31764706969261169,
        0.31764706969261169,
        0.31764706969261169,
        1
      ],
      "type": "VEC4"
    },
    {
      "bufferView": 1,
      "componentType": 5126,
      "count": 65533,
      "max": [
        0.99115580320358276,
        0.99058550596237183
      ],
      "min": [
        0.0088430037721991539,
        0.0088430037721991539
      ],
      "type": "VEC2"
    },
    {
      "bufferView": 1,
      "byteOffset": 524264,
      "componentType": 5126,
      "count": 65533,
      "max": [
        0.99115580320358276,
        0.99058550596237183
      ],
      "min": [
        0.0088430037721991539,
        0.0088430037721991539
      ],
      "type": "VEC2"
    },
    {
      "bufferView": 1,
      "byteOffset": 1048528,
      "componentType": 5126,
      "count": 65533,
      "max": [
        0.99115580320358276,
        0.99058550596237183
      ],
      "min": [
        0.0088430037721991539,
        0.0088430037721991539
      ],
      "type": "VEC2"
    },
    {
      "bufferView": 1,
      "byteOffset": 1572792,
      "componentType": 5126,
      "count": 65533,
      "max": [
        0.99115580320358276,
        0.99058550596237183
      ],
      "min": [
        0.0088430037721991539,
        0.0088430037721991539
      ],
      "type": "VEC2"
    },
    {
      "bufferView": 1,
      "byteOffset": 2097056,
      "componentType": 5126,
      "count": 65533,
      "max": [
        0.99115580320358276,
        0.99058550596237183
      ],
      "min": [
        0.0088430037721991539,
        0.0088430037721991539
      ],
      "type": "VEC2"
    },
    {
      "bufferView": 1,
      "byteOffset": 2621320,
      "componentType": 5126,
      "count": 65533,
      "max": [
        0.99115580320358276,
        0.99058550596237183
      ],
      "min": [
        0.0088430037721991539,
        0.0088430037721991539
      ],
      "type": "VEC2"
    },
    {
      "bufferView": 1,
      "byteOffset": 3145584,
      "componentType": 5126,
      "count": 65533,
      "max": [
        0.99115580320358276,
        0.99058550596237183
      ],
      "min": [
        0.0088430037721991539,
        0.0088430037721991539
      ],
      "type": "VEC2"
    },
    {
      "bufferView": 1,
      "byteOffset": 3669848,
      "componentType": 5126,
      "count": 65533,
      "max": [
        0.99115580320358276,
        0.99058550596237183
      ],
      "min": [
        0.0088430037721991539,
        0.0088430037721991539
      ],
      "type": "VEC2"
    },
    {
      "bufferView": 1,
      "byteOffset": 4194112,
      "componentType": 5126,
      "count": 65533,
      "max": [
        0.99115580320358276,
        0.99058550596237183
      ],
      "min": [
        0.0088430037721991539,
        0.0088430037721991539
      ],
      "type": "VEC2"
    },
    {
      "bufferView": 1,
      "byteOffset": 4718376,
      "componentType": 5126,
      "count": 65533,
      "max": [
        0.99115580320358276,
        0.99058550596237183
      ],
      "min": [
        0.0088430037721991539,
        0.0088430037721991539
      ],
      "type": "VEC2"
    },
    {
      "bufferView": 0,
      "componentType": 5125,
      "count": 68745,
      "max": [
        65532
      ],
      "min": [
        0
      ],
      "type": "SCALAR"
    },
    {
      "bufferView": 2,
      "byteOffset": 1572792,
      "componentType": 5126,
      "count": 28962,
      "max": [
        19.370677947998047,
        4.7481107711791992,
        4.8163166046142578
      ],
      "min": [
        -18.256149291992188,
        -0.78729450702667236,
        -6.9218840599060059
      ],
      "type": "VEC3"
    },
    {
      "bufferView": 2,
      "byteOffset": 1920336,
      "componentType": 5126,
      "count": 28962,
      "max": [
        1,
        1,
        1
      ],
      "min": [
        -1,
        -1,
        -1
      ],
      "type": "VEC3"
    },
    {
      "bufferView": 3,
      "byteOffset": 1048528,
      "componentType": 5126,
      "count": 28962,
      "max": [
        1,
        1,
        1,
        1
      ],
      "min": [
        0.31764706969261169,
        0.31764706969261169,
        0.31764706969261169,
        1
      ],
      "type": "VEC4"
    },
    {
      "bufferView": 1,
      "byteOffset": 5242640,
      "componentType": 5126,
      "count": 28962,
      "max": [
        0.99115699529647827,
        0.99096578359603882
      ],
      "min": [
        0.0088430037721991539,
        0.0088430037721991539
      ],
      "type": "VEC2"
    },
    {
      "bufferView": 1,
      "byteOffset": 5474336,
      "componentType": 5126,
      "count": 28962,
      "max": [
        0.99115699529647827,
        0.99096578359603882
      ],
      "min": [
        0.0088430037721991539,
        0.0088430037721991539
      ],
      "type": "VEC2"
    },
    {
      "bufferView": 1,
      "byteOffset": 5706032,
      "componentType": 5126,
      "count": 28962,
      "max": [
        0.99115699529647827,
        0.99096578359603882
      ],
      "min": [
        0.0088430037721991539,
        0.0088430037721991539
      ],
      "type": "VEC2"
    },
    {
      "bufferView": 1,
      "byteOffset": 5937728,
      "componentType": 5126,
      "count": 28962,
      "max": [
        0.99115699529647827,
        0.99096578359603882
      ],
      "min": [
        0.0088430037721991539,
        0.0088430037721991539
      ],
      "type": "VEC2"
    },
    {
      "bufferView": 1,
      "byteOffset": 6169424,
      "componentType": 5126,
      "count": 28962,
      "max": [
        0.99115699529647827,
        0.99096578359603882
      ],
      "min": [
        0.0088430037721991539,
        0.0088430037721991539
      ],
      "type": "VEC2"
    },
    {
      "bufferView": 1,
      "byteOffset": 6401120,
      "componentType": 5126,
      "count": 28962,
      "max": [
        0.99115699529647827,
        0.99096578359603882
      ],
      "min": [
        0.0088430037721991539,
        0.0088430037721991539
      ],
      "type": "VEC2"
    },
    {
      "bufferView": 1,
      "byteOffset": 6632816,
      "componentType": 5126,
      "count": 28962,
      "max": [
        0.99115699529647827,
        0.99096578359603882
      ],
      "min": [
        0.0088430037721991539,
        0.0088430037721991539
      ],
      "type": "VEC2"
    },
    {
      "bufferView": 1,
      "byteOffset": 6864512,
      "componentType": 5126,
      "count": 28962,
      "max": [
        0.99115699529647827,
        0.99096578359603882
      ],
      "min": [
        0.0088430037721991539,
        0.0088430037721991539
      ],
      "type": "VEC2"
    },
    {
      "bufferView": 1,
      "byteOffset": 7096208,
      "componentType": 5126,
      "count": 28962,
      "max": [
        0.99115699529647827,
        0.99096578359603882
      ],
      "min": [
        0.0088430037721991539,
        0.0088430037721991539
      ],
      "type": "VEC2"
    },
    {
      "bufferView": 1,
      "byteOffset": 7327904,
      "componentType": 5126,
      "count": 28962,
      "max": [
        0.99115699529647827,
        0.99096578359603882
      ],
      "min": [
        0.0088430037721991539,
        0.0088430037721991539
      ],
      "type": "VEC2"
    },
    {
      "bufferView": 0,
      "byteOffset": 274980,
      "componentType": 5125,
      "count": 28977,
      "max": [
        28961
      ],
      "min": [
        0
      ],
      "type": "SCALAR"
    }
  ],
  "asset": {
    "extras": {
      "author": "belopot (https://sketchfab.com/AdamRos)",
      "license": "SKETCHFAB Standard (https://sketchfab.com/licenses)",
      "source": "https://sketchfab.com/3d-models/hk21-11aee6467ab04be984339be7334dc8da",
      "title": "HK21"
    },
    "generator": "Sketchfab-7.99.0",
    "version": "2.0"
  },
  "bufferViews": [
    {
      "buffer": 0,
      "byteLength": 390888,
      "byteOffset": 0,
      "name": "floatBufferViews",
      "target": 34963
    },
    {
      "buffer": 0,
      "byteLength": 7559600,
      "byteOffset": 390888,
      "byteStride": 8,
      "name": "floatBufferViews",
      "target": 34962
    },
    {
      "buffer": 0,
      "byteLength": 2267880,
      "byteOffset": 7950488,
      "byteStride": 12,
      "name": "floatBufferViews",
      "target": 34962
    },
    {
      "buffer": 0,
      "byteLength": 1511920,
      "byteOffset": 10218368,
      "byteStride": 16,
      "name": "floatBufferViews",
      "target": 34962
    }
  ],
  "buffers": [
    {
      "byteLength": 11730288,
      "uri": "scene.bin"
    }
  ],
  "materials": [
    {
      "doubleSided": true,
      "emissiveFactor": [
        0,
        0,
        0
      ],
      "name": "Material_001",
      "pbrMetallicRoughness": {
        "baseColorFactor": [
          0.083528199999999997,
          0.083528199999999997,
          0.083528199999999997,
          1
        ],
        "metallicFactor": 0.1053734756097561,
        "roughnessFactor": 0.31878810975609756
      }
    }
  ],
  "meshes": [
    {
      "name": "gun_Material_001_0",
      "primitives": [
        {
          "attributes": {
            "COLOR_0": 2,
            "NORMAL": 1,
            "POSITION": 0,
            "TEXCOORD_0": 3,
            "TEXCOORD_1": 4,
            "TEXCOORD_2": 5,
            "TEXCOORD_3": 6,
            "TEXCOORD_4": 7,
            "TEXCOORD_5": 8,
            "TEXCOORD_6": 9,
            "TEXCOORD_7": 10,
            "TEXCOORD_8": 11,
            "TEXCOORD_9": 12
          },
          "indices": 13,
          "material": 0,
          "mode": 4
        }
      ]
    },
    {
      "name": "gun_Material_001_0",
      "primitives": [
        {
          "attributes": {
            "COLOR_0": 16,
            "NORMAL": 15,
            "POSITION": 14,
            "TEXCOORD_0": 17,
            "TEXCOORD_1": 18,
            "TEXCOORD_2": 19,
            "TEXCOORD_3": 20,
            "TEXCOORD_4": 21,
            "TEXCOORD_5": 22,
            "TEXCOORD_6": 23,
            "TEXCOORD_7": 24,
            "TEXCOORD_8": 25,
            "TEXCOORD_9": 26
          },
          "indices": 27,
          "material": 0,
          "mode": 4
        }
      ]
    }
  ],
  "nodes": [
    {
      "children": [
        1
      ],
      "name": "RootNode (gltf orientation matrix)",
      "rotation": [
        -0.70710678118654746,
        -0,
        -0,
        0.70710678118654757
      ]
    },
    {
      "children": [
        2
      ],
      "name": "RootNode (model correction matrix)"
    },
    {
      "children": [
        3
      ],
      "matrix": [
        1,
        0,
        0,
        0,
        0,
        0,
        1,
        0,
        0,
        -1,
        0,
        0,
        0,
        0,
        0,
        1
      ],
      "name": "HK21.fbx"
    },
    {
      "children": [
        4
      ],
      "name": "RootNode"
    },
    {
      "children": [
        5,
        6
      ],
      "matrix": [
        1,
        0,
        0,
        0,
        0,
        2.2204460492503131e-16,
        -1,
        0,
        0,
        1,
        2.2204460492503131e-16,
        0,
        0.10350731015205383,
        0.687549889087677,
        3.005375859288506e-08,
        1
      ],
      "name": "gun"
    },
    {
      "mesh": 0,
      "name": "gun_Material_001_0"
    },
    {
      "mesh": 1,
      "name": "gun_Material_001_0"
    }
  ],
  "scene": 0,
  "scenes": [
    {
      "name": "OSG_Scene",
      "nodes": [
        0
      ]
    }
  ]
}

