{
  "accessors": [
    {
      "bufferView": 2,
      "componentType": 5126,
      "count": 34363,
      "max": [
        12.388369560241699,
        0.85481888055801392,
        2.5954320430755615
      ],
      "min": [
        -24.975990295410156,
        -0.58500087261199951,
        -2.989922046661377
      ],
      "type": "VEC3"
    },
    {
      "bufferView": 2,
      "byteOffset": 412356,
      "componentType": 5126,
      "count": 34363,
      "max": [
        1,
        1,
        1
      ],
      "min": [
        -1,
        -1,
        -1
      ],
      "type": "VEC3"
    },
    {
      "bufferView": 3,
      "componentType": 5126,
      "count": 34363,
      "max": [
        1,
        1,
        1,
        1
      ],
      "min": [
        -1,
        -1,
        -1,
        -1
      ],
      "type": "VEC4"
    },
    {
      "bufferView": 1,
      "componentType": 5126,
      "count": 34363,
      "max": [
        0.99402850866317749,
        0.99462157487869263
      ],
      "min": [
        0.0053783650510013103,
        0.0053783650510013103
      ],
      "type": "VEC2"
    },
    {
      "bufferView": 1,
      "byteOffset": 274904,
      "componentType": 5126,
      "count": 34363,
      "max": [
        0.99402850866317749,
        0.99462157487869263
      ],
      "min": [
        0.0053783650510013103,
        0.0053783650510013103
      ],
      "type": "VEC2"
    },
    {
      "bufferView": 1,
      "byteOffset": 549808,
      "componentType": 5126,
      "count": 34363,
      "max": [
        0.99402850866317749,
        0.99462157487869263
      ],
      "min": [
        0.0053783650510013103,
        0.0053783650510013103
      ],
      "type": "VEC2"
    },
    {
      "bufferView": 1,
      "byteOffset": 824712,
      "componentType": 5126,
      "count": 34363,
      "max": [
        0.99402850866317749,
        0.99462157487869263
      ],
      "min": [
        0.0053783650510013103,
        0.0053783650510013103
      ],
      "type": "VEC2"
    },
    {
      "bufferView": 1,
      "byteOffset": 1099616,
      "componentType": 5126,
      "count": 34363,
      "max": [
        0.99402850866317749,
        0.99462157487869263
      ],
      "min": [
        0.0053783650510013103,
        0.0053783650510013103
      ],
      "type": "VEC2"
    },
    {
      "bufferView": 1,
      "byteOffset": 1374520,
      "componentType": 5126,
      "count": 34363,
      "max": [
        0.99402850866317749,
        0.99462157487869263
      ],
      "min": [
        0.0053783650510013103,
        0.0053783650510013103
      ],
      "type": "VEC2"
    },
    {
      "bufferView": 1,
      "byteOffset": 1649424,
      "componentType": 5126,
      "count": 34363,
      "max": [
        0.99402850866317749,
        0.99462157487869263
      ],
      "min": [
        0.0053783650510013103,
        0.0053783650510013103
      ],
      "type": "VEC2"
    },
    {
      "bufferView": 1,
      "byteOffset": 1924328,
      "componentType": 5126,
      "count": 34363,
      "max": [
        0.99402850866317749,
        0.99462157487869263
      ],
      "min": [
        0.0053783650510013103,
        0.0053783650510013103
      ],
      "type": "VEC2"
    },
    {
      "bufferView": 1,
      "byteOffset": 2199232,
      "componentType": 5126,
      "count": 34363,
      "max": [
        0.99402850866317749,
        0.99462157487869263
      ],
      "min": [
        0.0053783650510013103,
        0.0053783650510013103
      ],
      "type": "VEC2"
    },
    {
      "bufferView": 1,
      "byteOffset": 2474136,
      "componentType": 5126,
      "count": 34363,
      "max": [
        0.99402850866317749,
        0.99462157487869263
      ],
      "min": [
        0.0053783650510013103,
        0.0053783650510013103
      ],
      "type": "VEC2"
    },
    {
      "bufferView": 0,
      "componentType": 5125,
      "count": 120501,
      "max": [
        34362
      ],
      "min": [
        0
      ],
      "type": "SCALAR"
    }
  ],
  "asset": {
    "extras": {
      "author": "belopot (https://sketchfab.com/AdamRos)",
      "license": "SKETCHFAB Standard (https://sketchfab.com/licenses)",
      "source": "https://sketchfab.com/3d-models/svd-32ef8946ac584c78a3f174ca9fb3242c",
      "title": "SVD"
    },
    "generator": "Sketchfab-7.99.0",
    "version": "2.0"
  },
  "bufferViews": [
    {
      "buffer": 0,
      "byteLength": 482004,
      "byteOffset": 0,
      "name": "floatBufferViews",
      "target": 34963
    },
    {
      "buffer": 0,
      "byteLength": 2749040,
      "byteOffset": 482004,
      "byteStride": 8,
      "name": "floatBufferViews",
      "target": 34962
    },
    {
      "buffer": 0,
      "byteLength": 824712,
      "byteOffset": 3231044,
      "byteStride": 12,
      "name": "floatBufferViews",
      "target": 34962
    },
    {
      "buffer": 0,
      "byteLength": 549808,
      "byteOffset": 4055756,
      "byteStride": 16,
      "name": "floatBufferViews",
      "target": 34962
    }
  ],
  "buffers": [
    {
      "byteLength": 4605564,
      "uri": "scene.bin"
    }
  ],
  "images": [
    {
      "uri": "textures/SVD_Mat_baseColor.png"
    },
    {
      "uri": "textures/SVD_Mat_metallicRoughness.png"
    },
    {
      "uri": "textures/SVD_Mat_normal.png"
    }
  ],
  "materials": [
    {
      "doubleSided": true,
      "emissiveFactor": [
        0,
        0,
        0
      ],
      "name": "SVD_Mat",
      "normalTexture": {
        "index": 2,
        "scale": 1,
        "texCoord": 0
      },
      "occlusionTexture": {
        "index": 1,
        "strength": 1,
        "texCoord": 0
      },
      "pbrMetallicRoughness": {
        "baseColorFactor": [
          1,
          1,
          1,
          1
        ],
        "baseColorTexture": {
          "index": 0,
          "texCoord": 0
        },
        "metallicFactor": 1,
        "metallicRoughnessTexture": {
          "index": 1,
          "texCoord": 0
        },
        "roughnessFactor": 0.2151295731707317
      }
    }
  ],
  "meshes": [
    {
      "name": "SVD_Obj_SVD_Mat_0",
      "primitives": [
        {
          "attributes": {
            "NORMAL": 1,
            "POSITION": 0,
            "TANGENT": 2,
            "TEXCOORD_0": 3,
            "TEXCOORD_1": 4,
            "TEXCOORD_2": 5,
            "TEXCOORD_3": 6,
            "TEXCOORD_4": 7,
            "TEXCOORD_5": 8,
            "TEXCOORD_6": 9,
            "TEXCOORD_7": 10,
            "TEXCOORD_8": 11,
            "TEXCOORD_9": 12
          },
          "indices": 13,
          "material": 0,
          "mode": 4
        }
      ]
    }
  ],
  "nodes": [
    {
      "children": [
        1
      ],
      "name": "RootNode (gltf orientation matrix)",
      "rotation": [
        -0.70710678118654746,
        -0,
        -0,
        0.70710678118654757
      ]
    },
    {
      "children": [
        2
      ],
      "name": "RootNode (model correction matrix)"
    },
    {
      "children": [
        3
      ],
      "matrix": [
        1,
        0,
        0,
        0,
        0,
        0,
        1,
        0,
        0,
        -1,
        0,
        0,
        0,
        0,
        0,
        1
      ],
      "name": "model.FBX"
    },
    {
      "children": [
        4
      ],
      "name": "RootNode"
    },
    {
      "children": [
        5
      ],
      "matrix": [
        1,
        0,
        0,
        0,
        0,
        2.2204460492503131e-16,
        -1,
        0,
        0,
        1,
        2.2204460492503131e-16,
        0,
        3.3371200561523438,
        0.18030118942260742,
        0.18670724332332611,
        1
      ],
      "name": "SVD_Obj"
    },
    {
      "children": [
        6
      ],
      "matrix": [
        -1.3839590549468994,
        -1.6948610267917164e-16,
        0,
        0,
        1.6948610267917164e-16,
        -1.3839590549468994,
        0,
        0,
        0,
        0,
        1.3839590549468994,
        0,
        -8.7103748321533203,
        0.18670722842216492,
        0.2729790210723877,
        1
      ],
      "name": ""
    },
    {
      "mesh": 0,
      "name": "SVD_Obj_SVD_Mat_0"
    }
  ],
  "samplers": [
    {
      "magFilter": 9729,
      "minFilter": 9987,
      "wrapS": 10497,
      "wrapT": 10497
    }
  ],
  "scene": 0,
  "scenes": [
    {
      "name": "OSG_Scene",
      "nodes": [
        0
      ]
    }
  ],
  "textures": [
    {
      "sampler": 0,
      "source": 0
    },
    {
      "sampler": 0,
      "source": 1
    },
    {
      "sampler": 0,
      "source": 2
    }
  ]
}

