{
  "accessors": [
    {
      "bufferView": 2,
      "componentType": 5126,
      "count": 6394,
      "max": [
        0.50567114353179932,
        1.2817494869232178,
        5.7239503860473633
      ],
      "min": [
        -0.50567102432250977,
        -0.72640752792358398,
        -2.5956223011016846
      ],
      "type": "VEC3"
    },
    {
      "bufferView": 2,
      "byteOffset": 76728,
      "componentType": 5126,
      "count": 6394,
      "max": [
        1,
        1,
        1
      ],
      "min": [
        -1,
        -1,
        -1
      ],
      "type": "VEC3"
    },
    {
      "bufferView": 3,
      "componentType": 5126,
      "count": 6394,
      "max": [
        1,
        1,
        1,
        1
      ],
      "min": [
        -1,
        -1,
        -1,
        -1
      ],
      "type": "VEC4"
    },
    {
      "bufferView": 1,
      "componentType": 5126,
      "count": 6394,
      "max": [
        0.91768449544906616,
        0.99800807237625122
      ],
      "min": [
        0.0018317055655643344,
        0.0019920319318771362
      ],
      "type": "VEC2"
    },
    {
      "bufferView": 0,
      "componentType": 5125,
      "count": 19782,
      "max": [
        6393
      ],
      "min": [
        0
      ],
      "type": "SCALAR"
    },
    {
      "bufferView": 2,
      "byteOffset": 153456,
      "componentType": 5126,
      "count": 1243,
      "max": [
        0.085698828101158142,
        0.15443125367164612,
        0.71288430690765381
      ],
      "min": [
        -0.41763916611671448,
        -0.94088798761367798,
        -0.97872328758239746
      ],
      "type": "VEC3"
    },
    {
      "bufferView": 2,
      "byteOffset": 168372,
      "componentType": 5126,
      "count": 1243,
      "max": [
        1,
        1,
        0.99999719858169556
      ],
      "min": [
        -1,
        -1,
        -0.99999463558197021
      ],
      "type": "VEC3"
    },
    {
      "bufferView": 3,
      "byteOffset": 102304,
      "componentType": 5126,
      "count": 1243,
      "max": [
        1,
        1,
        1,
        1
      ],
      "min": [
        -1,
        -1,
        -1,
        -1
      ],
      "type": "VEC4"
    },
    {
      "bufferView": 1,
      "byteOffset": 51152,
      "componentType": 5126,
      "count": 1243,
      "max": [
        0.97866255044937134,
        0.99800801277160645
      ],
      "min": [
        0.0019534183666110039,
        0.0019920319318771362
      ],
      "type": "VEC2"
    },
    {
      "bufferView": 0,
      "byteOffset": 79128,
      "componentType": 5125,
      "count": 3606,
      "max": [
        1242
      ],
      "min": [
        0
      ],
      "type": "SCALAR"
    },
    {
      "bufferView": 2,
      "byteOffset": 183288,
      "componentType": 5126,
      "count": 436,
      "max": [
        0.35183799266815186,
        0.75663316249847412,
        4.0938596725463867
      ],
      "min": [
        -0.35183790326118469,
        0.052941188216209412,
        0.78016680479049683
      ],
      "type": "VEC3"
    },
    {
      "bufferView": 2,
      "byteOffset": 188520,
      "componentType": 5126,
      "count": 436,
      "max": [
        0.99994015693664551,
        0.99994736909866333,
        0.99977517127990723
      ],
      "min": [
        -0.99994015693664551,
        -0.99993270635604858,
        -1
      ],
      "type": "VEC3"
    },
    {
      "bufferView": 3,
      "byteOffset": 122192,
      "componentType": 5126,
      "count": 436,
      "max": [
        1,
        1,
        0.99994701147079468,
        1
      ],
      "min": [
        -1,
        -1,
        -0.99993425607681274,
        -1
      ],
      "type": "VEC4"
    },
    {
      "bufferView": 1,
      "byteOffset": 61096,
      "componentType": 5126,
      "count": 436,
      "max": [
        0.94870901107788086,
        0.99800801277160645
      ],
      "min": [
        0.0018936308333650231,
        0.0019920321647077799
      ],
      "type": "VEC2"
    },
    {
      "bufferView": 0,
      "byteOffset": 93552,
      "componentType": 5125,
      "count": 1356,
      "max": [
        435
      ],
      "min": [
        0
      ],
      "type": "SCALAR"
    },
    {
      "bufferView": 2,
      "byteOffset": 193752,
      "componentType": 5126,
      "count": 1064,
      "max": [
        0.091445237398147583,
        0.20383927226066589,
        -0.53768014907836914
      ],
      "min": [
        -0.091445200145244598,
        -0.94646167755126953,
        -1.4538471698760986
      ],
      "type": "VEC3"
    },
    {
      "bufferView": 2,
      "byteOffset": 206520,
      "componentType": 5126,
      "count": 1064,
      "max": [
        1,
        0.99999898672103882,
        0.99999982118606567
      ],
      "min": [
        -1,
        -0.99994999170303345,
        -0.99996662139892578
      ],
      "type": "VEC3"
    },
    {
      "bufferView": 3,
      "byteOffset": 129168,
      "componentType": 5126,
      "count": 1064,
      "max": [
        1,
        1,
        1,
        1
      ],
      "min": [
        -1,
        -1,
        -1,
        -1
      ],
      "type": "VEC4"
    },
    {
      "bufferView": 1,
      "byteOffset": 64584,
      "componentType": 5126,
      "count": 1064,
      "max": [
        0.99800801277160645,
        0.98723101615905762
      ],
      "min": [
        0.0019920321647077799,
        0.0019705209415405989
      ],
      "type": "VEC2"
    },
    {
      "bufferView": 0,
      "byteOffset": 98976,
      "componentType": 5125,
      "count": 2928,
      "max": [
        1063
      ],
      "min": [
        0
      ],
      "type": "SCALAR"
    },
    {
      "bufferView": 2,
      "byteOffset": 219288,
      "componentType": 5126,
      "count": 1211,
      "max": [
        0.40044376254081726,
        0.82816004753112793,
        4.0433807373046875
      ],
      "min": [
        -0.4004436731338501,
        0.0043548382818698883,
        0.82445329427719116
      ],
      "type": "VEC3"
    },
    {
      "bufferView": 2,
      "byteOffset": 233820,
      "componentType": 5126,
      "count": 1211,
      "max": [
        0.99999207258224487,
        0.99999576807022095,
        0.9999735951423645
      ],
      "min": [
        -0.99999195337295532,
        -0.99998706579208374,
        -0.99999016523361206
      ],
      "type": "VEC3"
    },
    {
      "bufferView": 3,
      "byteOffset": 146192,
      "componentType": 5126,
      "count": 1211,
      "max": [
        1,
        1,
        0.9999997615814209,
        1
      ],
      "min": [
        -1,
        -1,
        -0.99999994039535522,
        -1
      ],
      "type": "VEC4"
    },
    {
      "bufferView": 1,
      "byteOffset": 73096,
      "componentType": 5126,
      "count": 1211,
      "max": [
        0.97500956058502197,
        0.99800795316696167
      ],
      "min": [
        0.0019461269257590175,
        0.0019920319318771362
      ],
      "type": "VEC2"
    },
    {
      "bufferView": 0,
      "byteOffset": 110688,
      "componentType": 5125,
      "count": 3192,
      "max": [
        1210
      ],
      "min": [
        0
      ],
      "type": "SCALAR"
    },
    {
      "bufferView": 2,
      "byteOffset": 248352,
      "componentType": 5126,
      "count": 3244,
      "max": [
        1.8641546964645386,
        18.510456085205078,
        1.864171028137207
      ],
      "min": [
        -1.8641549348831177,
        -20.862894058227539,
        -1.8641452789306641
      ],
      "type": "VEC3"
    },
    {
      "bufferView": 2,
      "byteOffset": 287280,
      "componentType": 5126,
      "count": 3244,
      "max": [
        1,
        1,
        1
      ],
      "min": [
        -1,
        -1,
        -1
      ],
      "type": "VEC3"
    },
    {
      "bufferView": 3,
      "byteOffset": 165568,
      "componentType": 5126,
      "count": 3244,
      "max": [
        1,
        1,
        1,
        1
      ],
      "min": [
        -1,
        -1,
        -1,
        -1
      ],
      "type": "VEC4"
    },
    {
      "bufferView": 1,
      "byteOffset": 82784,
      "componentType": 5126,
      "count": 3244,
      "max": [
        0.94892936944961548,
        0.99800801277160645
      ],
      "min": [
        0.0018940706504508853,
        0.0019920321647077799
      ],
      "type": "VEC2"
    },
    {
      "bufferView": 0,
      "byteOffset": 123456,
      "componentType": 5125,
      "count": 9900,
      "max": [
        3243
      ],
      "min": [
        0
      ],
      "type": "SCALAR"
    }
  ],
  "asset": {
    "extras": {
      "author": "belopot (https://sketchfab.com/AdamRos)",
      "license": "SKETCHFAB Standard (https://sketchfab.com/licenses)",
      "source": "https://sketchfab.com/3d-models/rpg-b6a468e979b84d46b48f6f4d9e4e2c37",
      "title": "RPG"
    },
    "generator": "Sketchfab-7.99.0",
    "version": "2.0"
  },
  "bufferViews": [
    {
      "buffer": 0,
      "byteLength": 163056,
      "byteOffset": 0,
      "name": "floatBufferViews",
      "target": 34963
    },
    {
      "buffer": 0,
      "byteLength": 108736,
      "byteOffset": 163056,
      "byteStride": 8,
      "name": "floatBufferViews",
      "target": 34962
    },
    {
      "buffer": 0,
      "byteLength": 326208,
      "byteOffset": 271792,
      "byteStride": 12,
      "name": "floatBufferViews",
      "target": 34962
    },
    {
      "buffer": 0,
      "byteLength": 217472,
      "byteOffset": 598000,
      "byteStride": 16,
      "name": "floatBufferViews",
      "target": 34962
    }
  ],
  "buffers": [
    {
      "byteLength": 815472,
      "uri": "scene.bin"
    }
  ],
  "images": [
    {
      "uri": "textures/black_metal_baseColor.png"
    },
    {
      "uri": "textures/black_metal_metallicRoughness.png"
    },
    {
      "uri": "textures/black_metal_normal.png"
    },
    {
      "uri": "textures/plastek_baseColor.png"
    },
    {
      "uri": "textures/plastek_metallicRoughness.png"
    },
    {
      "uri": "textures/plastek_normal.png"
    },
    {
      "uri": "textures/wood_baseColor.png"
    },
    {
      "uri": "textures/wood_metallicRoughness.png"
    },
    {
      "uri": "textures/wood_normal.png"
    },
    {
      "uri": "textures/with_metal_baseColor.png"
    },
    {
      "uri": "textures/with_metal_metallicRoughness.png"
    },
    {
      "uri": "textures/with_metal_normal.png"
    },
    {
      "uri": "textures/bast_baseColor.png"
    },
    {
      "uri": "textures/bast_metallicRoughness.png"
    },
    {
      "uri": "textures/bast_normal.png"
    },
    {
      "uri": "textures/rocket_baseColor.png"
    },
    {
      "uri": "textures/rocket_metallicRoughness.png"
    },
    {
      "uri": "textures/rocket_normal.png"
    }
  ],
  "materials": [
    {
      "doubleSided": true,
      "emissiveFactor": [
        0,
        0,
        0
      ],
      "name": "black_metal",
      "normalTexture": {
        "index": 2,
        "scale": 1,
        "texCoord": 0
      },
      "pbrMetallicRoughness": {
        "baseColorFactor": [
          1,
          1,
          1,
          1
        ],
        "baseColorTexture": {
          "index": 0,
          "texCoord": 0
        },
        "metallicFactor": 1,
        "metallicRoughnessTexture": {
          "index": 1,
          "texCoord": 0
        },
        "roughnessFactor": 0.81269054878048785
      }
    },
    {
      "doubleSided": true,
      "emissiveFactor": [
        0,
        0,
        0
      ],
      "name": "plastek",
      "normalTexture": {
        "index": 5,
        "scale": 1,
        "texCoord": 0
      },
      "pbrMetallicRoughness": {
        "baseColorFactor": [
          1,
          1,
          1,
          1
        ],
        "baseColorTexture": {
          "index": 3,
          "texCoord": 0
        },
        "metallicFactor": 1,
        "metallicRoughnessTexture": {
          "index": 4,
          "texCoord": 0
        },
        "roughnessFactor": 1
      }
    },
    {
      "doubleSided": true,
      "emissiveFactor": [
        0,
        0,
        0
      ],
      "name": "wood",
      "normalTexture": {
        "index": 8,
        "scale": 1,
        "texCoord": 0
      },
      "pbrMetallicRoughness": {
        "baseColorFactor": [
          1,
          1,
          1,
          1
        ],
        "baseColorTexture": {
          "index": 6,
          "texCoord": 0
        },
        "metallicFactor": 1,
        "metallicRoughnessTexture": {
          "index": 7,
          "texCoord": 0
        },
        "roughnessFactor": 1
      }
    },
    {
      "doubleSided": true,
      "emissiveFactor": [
        0,
        0,
        0
      ],
      "name": "with_metal",
      "normalTexture": {
        "index": 11,
        "scale": 1,
        "texCoord": 0
      },
      "pbrMetallicRoughness": {
        "baseColorFactor": [
          1,
          1,
          1,
          1
        ],
        "baseColorTexture": {
          "index": 9,
          "texCoord": 0
        },
        "metallicFactor": 1,
        "metallicRoughnessTexture": {
          "index": 10,
          "texCoord": 0
        },
        "roughnessFactor": 0.15415396341463414
      }
    },
    {
      "doubleSided": true,
      "emissiveFactor": [
        0,
        0,
        0
      ],
      "name": "bast",
      "normalTexture": {
        "index": 14,
        "scale": 1,
        "texCoord": 0
      },
      "pbrMetallicRoughness": {
        "baseColorFactor": [
          1,
          1,
          1,
          1
        ],
        "baseColorTexture": {
          "index": 12,
          "texCoord": 0
        },
        "metallicFactor": 1,
        "metallicRoughnessTexture": {
          "index": 13,
          "texCoord": 0
        },
        "roughnessFactor": 1
      }
    },
    {
      "doubleSided": true,
      "emissiveFactor": [
        0,
        0,
        0
      ],
      "name": "rocket",
      "normalTexture": {
        "index": 17,
        "scale": 1,
        "texCoord": 0
      },
      "pbrMetallicRoughness": {
        "baseColorFactor": [
          1,
          1,
          1,
          1
        ],
        "baseColorTexture": {
          "index": 15,
          "texCoord": 0
        },
        "metallicFactor": 1,
        "metallicRoughnessTexture": {
          "index": 16,
          "texCoord": 0
        },
        "roughnessFactor": 1
      }
    }
  ],
  "meshes": [
    {
      "name": "pCube12_black_metal_0",
      "primitives": [
        {
          "attributes": {
            "NORMAL": 1,
            "POSITION": 0,
            "TANGENT": 2,
            "TEXCOORD_0": 3
          },
          "indices": 4,
          "material": 0,
          "mode": 4
        }
      ]
    },
    {
      "name": "pCube12_plastek_0",
      "primitives": [
        {
          "attributes": {
            "NORMAL": 6,
            "POSITION": 5,
            "TANGENT": 7,
            "TEXCOORD_0": 8
          },
          "indices": 9,
          "material": 1,
          "mode": 4
        }
      ]
    },
    {
      "name": "pCube12_wood_0",
      "primitives": [
        {
          "attributes": {
            "NORMAL": 11,
            "POSITION": 10,
            "TANGENT": 12,
            "TEXCOORD_0": 13
          },
          "indices": 14,
          "material": 2,
          "mode": 4
        }
      ]
    },
    {
      "name": "pCube12_with_metal_0",
      "primitives": [
        {
          "attributes": {
            "NORMAL": 16,
            "POSITION": 15,
            "TANGENT": 17,
            "TEXCOORD_0": 18
          },
          "indices": 19,
          "material": 3,
          "mode": 4
        }
      ]
    },
    {
      "name": "pCube12_bast_0",
      "primitives": [
        {
          "attributes": {
            "NORMAL": 21,
            "POSITION": 20,
            "TANGENT": 22,
            "TEXCOORD_0": 23
          },
          "indices": 24,
          "material": 4,
          "mode": 4
        }
      ]
    },
    {
      "name": "pCylinder8_rocket_0",
      "primitives": [
        {
          "attributes": {
            "NORMAL": 26,
            "POSITION": 25,
            "TANGENT": 27,
            "TEXCOORD_0": 28
          },
          "indices": 29,
          "material": 5,
          "mode": 4
        }
      ]
    }
  ],
  "nodes": [
    {
      "children": [
        1
      ],
      "name": "RootNode (gltf orientation matrix)",
      "rotation": [
        -0.70710678118654746,
        -0,
        -0,
        0.70710678118654757
      ]
    },
    {
      "children": [
        2
      ],
      "name": "RootNode (model correction matrix)"
    },
    {
      "children": [
        3
      ],
      "matrix": [
        1,
        0,
        0,
        0,
        0,
        0,
        1,
        0,
        0,
        -1,
        0,
        0,
        0,
        0,
        0,
        1
      ],
      "name": "model.FBX"
    },
    {
      "children": [
        4,
        11
      ],
      "name": "RootNode"
    },
    {
      "children": [
        5
      ],
      "matrix": [
        1,
        0,
        0,
        0,
        0,
        2.2204460492503131e-16,
        -1,
        0,
        0,
        1,
        2.2204460492503131e-16,
        0,
        -7.7158799171447754,
        -1.0624896287918091,
        0.39579540491104126,
        1
      ],
      "name": "pCube12"
    },
    {
      "children": [
        6,
        7,
        8,
        9,
        10
      ],
      "matrix": [
        2.3542024621786476e-16,
        -3.8447043895721369,
        -2.2916224208179858e-07,
        0,
        -0.33508808749789049,
        -2.2829022474200137e-07,
        3.830074366133148,
        0,
        -3.830074603644479,
        1.9972807660948614e-08,
        -0.33508810827743823,
        0,
        6.0470395088195801,
        -1.1452852533011537e-07,
        -0.11795599013566971,
        1
      ],
      "name": ""
    },
    {
      "mesh": 0,
      "name": "pCube12_black_metal_0"
    },
    {
      "mesh": 1,
      "name": "pCube12_plastek_0"
    },
    {
      "mesh": 2,
      "name": "pCube12_wood_0"
    },
    {
      "mesh": 3,
      "name": "pCube12_with_metal_0"
    },
    {
      "mesh": 4,
      "name": "pCube12_bast_0"
    },
    {
      "children": [
        12
      ],
      "matrix": [
        1,
        0,
        0,
        0,
        0,
        2.2204460492503131e-16,
        -1,
        0,
        0,
        1,
        2.2204460492503131e-16,
        0,
        7.9989562034606934,
        1.2087794542312622,
        0.3822476863861084,
        1
      ],
      "name": "pCylinder8"
    },
    {
      "children": [
        13
      ],
      "matrix": [
        -9.2079010075640926e-08,
        -0.69150161743163452,
        -2.5760442968584746e-09,
        0,
        0.68887054621836263,
        -9.1953176170657835e-08,
        0.060267629761791057,
        0,
        -0.060267614177317887,
        5.4588761254220682e-09,
        0.68887036808485902,
        0,
        0.81026357412338257,
        -1.7881392011531716e-07,
        0.070879079401493073,
        1
      ],
      "name": ""
    },
    {
      "mesh": 5,
      "name": "pCylinder8_rocket_0"
    }
  ],
  "samplers": [
    {
      "magFilter": 9729,
      "minFilter": 9987,
      "wrapS": 10497,
      "wrapT": 10497
    }
  ],
  "scene": 0,
  "scenes": [
    {
      "name": "OSG_Scene",
      "nodes": [
        0
      ]
    }
  ],
  "textures": [
    {
      "sampler": 0,
      "source": 0
    },
    {
      "sampler": 0,
      "source": 1
    },
    {
      "sampler": 0,
      "source": 2
    },
    {
      "sampler": 0,
      "source": 3
    },
    {
      "sampler": 0,
      "source": 4
    },
    {
      "sampler": 0,
      "source": 5
    },
    {
      "sampler": 0,
      "source": 6
    },
    {
      "sampler": 0,
      "source": 7
    },
    {
      "sampler": 0,
      "source": 8
    },
    {
      "sampler": 0,
      "source": 9
    },
    {
      "sampler": 0,
      "source": 10
    },
    {
      "sampler": 0,
      "source": 11
    },
    {
      "sampler": 0,
      "source": 12
    },
    {
      "sampler": 0,
      "source": 13
    },
    {
      "sampler": 0,
      "source": 14
    },
    {
      "sampler": 0,
      "source": 15
    },
    {
      "sampler": 0,
      "source": 16
    },
    {
      "sampler": 0,
      "source": 17
    }
  ]
}

