{
  "accessors": [
    {
      "bufferView": 2,
      "componentType": 5126,
      "count": 2144,
      "max": [
        -31.491500854492188,
        1.2187000513076782,
        4.6486001014709473
      ],
      "min": [
        -43.062599182128906,
        -0.60009998083114624,
        2.8297998905181885
      ],
      "type": "VEC3"
    },
    {
      "bufferView": 2,
      "byteOffset": 25728,
      "componentType": 5126,
      "count": 2144,
      "max": [
        1,
        1,
        1
      ],
      "min": [
        -1,
        -1,
        -1
      ],
      "type": "VEC3"
    },
    {
      "bufferView": 1,
      "componentType": 5126,
      "count": 2144,
      "max": [
        0.96420001983642578,
        0.98030000925064087
      ],
      "min": [
        0.086900003254413605,
        0.027200000360608101
      ],
      "type": "VEC2"
    },
    {
      "bufferView": 0,
      "componentType": 5125,
      "count": 7680,
      "max": [
        2143
      ],
      "min": [
        0
      ],
      "type": "SCALAR"
    },
    {
      "bufferView": 2,
      "byteOffset": 51456,
      "componentType": 5126,
      "count": 492,
      "max": [
        39.370098114013672,
        1.9174000024795532,
        5.8487000465393066
      ],
      "min": [
        18.883499145507812,
        -1.298799991607666,
        -5.4081001281738281
      ],
      "type": "VEC3"
    },
    {
      "bufferView": 2,
      "byteOffset": 57360,
      "componentType": 5126,
      "count": 492,
      "max": [
        0.99973559379577637,
        0.96749371290206909,
        1
      ],
      "min": [
        -1,
        -0.99452227354049683,
        -1
      ],
      "type": "VEC3"
    },
    {
      "bufferView": 1,
      "byteOffset": 17152,
      "componentType": 5126,
      "count": 492,
      "max": [
        0.98360002040863037,
        0.98329997062683105
      ],
      "min": [
        0.02199999988079071,
        0.022500000894069672
      ],
      "type": "VEC2"
    },
    {
      "bufferView": 0,
      "byteOffset": 30720,
      "componentType": 5125,
      "count": 1824,
      "max": [
        491
      ],
      "min": [
        0
      ],
      "type": "SCALAR"
    },
    {
      "bufferView": 2,
      "byteOffset": 63264,
      "componentType": 5126,
      "count": 8672,
      "max": [
        20.055200576782227,
        3.2999999523162842,
        8.184300422668457
      ],
      "min": [
        -32.009300231933594,
        -3.2999999523162842,
        -6.9962000846862793
      ],
      "type": "VEC3"
    },
    {
      "bufferView": 2,
      "byteOffset": 167328,
      "componentType": 5126,
      "count": 8672,
      "max": [
        1,
        1,
        1
      ],
      "min": [
        -1,
        -1,
        -1
      ],
      "type": "VEC3"
    },
    {
      "bufferView": 1,
      "byteOffset": 21088,
      "componentType": 5126,
      "count": 8672,
      "max": [
        0.99000000953674316,
        0.99510002136230469
      ],
      "min": [
        0.0076000001281499863,
        0.0052000000141561031
      ],
      "type": "VEC2"
    },
    {
      "bufferView": 0,
      "byteOffset": 38016,
      "componentType": 5125,
      "count": 27762,
      "max": [
        8671
      ],
      "min": [
        0
      ],
      "type": "SCALAR"
    },
    {
      "bufferView": 2,
      "byteOffset": 271392,
      "componentType": 5126,
      "count": 294,
      "max": [
        5.986299991607666,
        1.4185999631881714,
        4.5107002258300781
      ],
      "min": [
        0.21739999949932098,
        -0.79989999532699585,
        -8.1842002868652344
      ],
      "type": "VEC3"
    },
    {
      "bufferView": 2,
      "byteOffset": 274920,
      "componentType": 5126,
      "count": 294,
      "max": [
        0.99917560815811157,
        1,
        1
      ],
      "min": [
        -1,
        -0.97667694091796875,
        -1
      ],
      "type": "VEC3"
    },
    {
      "bufferView": 1,
      "byteOffset": 90464,
      "componentType": 5126,
      "count": 294,
      "max": [
        0.97769999504089355,
        0.96560001373291016
      ],
      "min": [
        0.030099999159574509,
        0.014999999664723873
      ],
      "type": "VEC2"
    },
    {
      "bufferView": 0,
      "byteOffset": 149064,
      "componentType": 5125,
      "count": 984,
      "max": [
        293
      ],
      "min": [
        0
      ],
      "type": "SCALAR"
    },
    {
      "bufferView": 2,
      "byteOffset": 278448,
      "componentType": 5126,
      "count": 1302,
      "max": [
        -2.2588999271392822,
        1.8025000095367432,
        6.5763001441955566
      ],
      "min": [
        -24.862600326538086,
        -1.183899998664856,
        2.1810998916625977
      ],
      "type": "VEC3"
    },
    {
      "bufferView": 2,
      "byteOffset": 294072,
      "componentType": 5126,
      "count": 1302,
      "max": [
        1,
        1,
        1
      ],
      "min": [
        -1,
        -1,
        -1
      ],
      "type": "VEC3"
    },
    {
      "bufferView": 1,
      "byteOffset": 92816,
      "componentType": 5126,
      "count": 1302,
      "max": [
        0.993399977684021,
        0.97469997406005859
      ],
      "min": [
        0.017999999225139618,
        0.014399999752640724
      ],
      "type": "VEC2"
    },
    {
      "bufferView": 0,
      "byteOffset": 153000,
      "componentType": 5125,
      "count": 4332,
      "max": [
        1301
      ],
      "min": [
        0
      ],
      "type": "SCALAR"
    }
  ],
  "asset": {
    "extras": {
      "author": "belopot (https://sketchfab.com/AdamRos)",
      "license": "SKETCHFAB Standard (https://sketchfab.com/licenses)",
      "source": "https://sketchfab.com/3d-models/fal-9917a3d8645041d499f48b537ed6d21d",
      "title": "FAL"
    },
    "generator": "Sketchfab-7.96.0",
    "version": "2.0"
  },
  "bufferViews": [
    {
      "buffer": 0,
      "byteLength": 170328,
      "byteOffset": 0,
      "name": "floatBufferViews",
      "target": 34963
    },
    {
      "buffer": 0,
      "byteLength": 103232,
      "byteOffset": 170328,
      "byteStride": 8,
      "name": "floatBufferViews",
      "target": 34962
    },
    {
      "buffer": 0,
      "byteLength": 309696,
      "byteOffset": 273560,
      "byteStride": 12,
      "name": "floatBufferViews",
      "target": 34962
    }
  ],
  "buffers": [
    {
      "byteLength": 583256,
      "uri": "scene.bin"
    }
  ],
  "materials": [
    {
      "doubleSided": true,
      "emissiveFactor": [
        0,
        0,
        0
      ],
      "name": "FN_Herstal",
      "pbrMetallicRoughness": {
        "baseColorFactor": [
          0.043099999999999999,
          0.043099999999999999,
          0.043099999999999999,
          1
        ],
        "metallicFactor": 0.71512957317073167,
        "roughnessFactor": 0.065358231707317027
      }
    },
    {
      "doubleSided": true,
      "emissiveFactor": [
        0,
        0,
        0
      ],
      "name": "02___Default",
      "pbrMetallicRoughness": {
        "baseColorFactor": [
          0.034218421378723572,
          0.027497326308758601,
          0.027497326308758601,
          1
        ],
        "metallicFactor": 0.87976371951219512,
        "roughnessFactor": 0.37023628048780488
      }
    }
  ],
  "meshes": [
    {
      "name": "Cylinder_FN_Herstal_0",
      "primitives": [
        {
          "attributes": {
            "NORMAL": 1,
            "POSITION": 0,
            "TEXCOORD_0": 2
          },
          "indices": 3,
          "material": 0,
          "mode": 4
        }
      ]
    },
    {
      "name": "Cube_005_02___Default_0",
      "primitives": [
        {
          "attributes": {
            "NORMAL": 5,
            "POSITION": 4,
            "TEXCOORD_0": 6
          },
          "indices": 7,
          "material": 1,
          "mode": 4
        }
      ]
    },
    {
      "name": "Cube_000_FN_Herstal_0",
      "primitives": [
        {
          "attributes": {
            "NORMAL": 9,
            "POSITION": 8,
            "TEXCOORD_0": 10
          },
          "indices": 11,
          "material": 0,
          "mode": 4
        }
      ]
    },
    {
      "name": "Cube_001_FN_Herstal_0",
      "primitives": [
        {
          "attributes": {
            "NORMAL": 13,
            "POSITION": 12,
            "TEXCOORD_0": 14
          },
          "indices": 15,
          "material": 0,
          "mode": 4
        }
      ]
    },
    {
      "name": "Cube_003_02___Default_0",
      "primitives": [
        {
          "attributes": {
            "NORMAL": 17,
            "POSITION": 16,
            "TEXCOORD_0": 18
          },
          "indices": 19,
          "material": 1,
          "mode": 4
        }
      ]
    }
  ],
  "nodes": [
    {
      "children": [
        1
      ],
      "name": "RootNode (gltf orientation matrix)",
      "rotation": [
        -0.70710678118654746,
        -0,
        -0,
        0.70710678118654757
      ]
    },
    {
      "children": [
        2
      ],
      "name": "RootNode (model correction matrix)"
    },
    {
      "children": [
        3
      ],
      "matrix": [
        1,
        0,
        0,
        0,
        0,
        0,
        1,
        0,
        0,
        -1,
        0,
        0,
        0,
        0,
        0,
        1
      ],
      "name": "FAL.fbx"
    },
    {
      "children": [
        4,
        6,
        8,
        10,
        12
      ],
      "name": "RootNode"
    },
    {
      "children": [
        5
      ],
      "matrix": [
        1,
        0,
        0,
        0,
        0,
        2.2204460492503131e-16,
        -1,
        0,
        0,
        1,
        2.2204460492503131e-16,
        0,
        0,
        0,
        0,
        1
      ],
      "name": "Cylinder"
    },
    {
      "mesh": 0,
      "name": "Cylinder_FN_Herstal_0"
    },
    {
      "children": [
        7
      ],
      "matrix": [
        1,
        0,
        0,
        0,
        0,
        2.2204460492503131e-16,
        -1,
        0,
        0,
        1,
        2.2204460492503131e-16,
        0,
        0,
        0,
        0,
        1
      ],
      "name": "Cube_005"
    },
    {
      "mesh": 1,
      "name": "Cube_005_02___Default_0"
    },
    {
      "children": [
        9
      ],
      "matrix": [
        1,
        0,
        0,
        0,
        0,
        2.2204460492503131e-16,
        -1,
        0,
        0,
        1,
        2.2204460492503131e-16,
        0,
        0,
        0,
        0,
        1
      ],
      "name": "Cube_000"
    },
    {
      "mesh": 2,
      "name": "Cube_000_FN_Herstal_0"
    },
    {
      "children": [
        11
      ],
      "matrix": [
        1,
        0,
        0,
        0,
        0,
        2.2204460492503131e-16,
        -1,
        0,
        0,
        1,
        2.2204460492503131e-16,
        0,
        0,
        0,
        0,
        1
      ],
      "name": "Cube_001"
    },
    {
      "mesh": 3,
      "name": "Cube_001_FN_Herstal_0"
    },
    {
      "children": [
        13
      ],
      "matrix": [
        1,
        0,
        0,
        0,
        0,
        2.2204460492503131e-16,
        -1,
        0,
        0,
        1,
        2.2204460492503131e-16,
        0,
        0,
        0,
        0,
        1
      ],
      "name": "Cube_003"
    },
    {
      "mesh": 4,
      "name": "Cube_003_02___Default_0"
    }
  ],
  "scene": 0,
  "scenes": [
    {
      "name": "OSG_Scene",
      "nodes": [
        0
      ]
    }
  ]
}

