{
  "accessors": [
    {
      "bufferView": 2,
      "componentType": 5126,
      "count": 3031,
      "max": [
        4.3139152526855469,
        0.58945214748382568,
        1.2266483306884766
      ],
      "min": [
        -4.3139152526855469,
        -0.58945250511169434,
        -1.2266486883163452
      ],
      "type": "VEC3"
    },
    {
      "bufferView": 2,
      "byteOffset": 36372,
      "componentType": 5126,
      "count": 3031,
      "max": [
        1,
        1,
        1
      ],
      "min": [
        -1,
        -1,
        -1
      ],
      "type": "VEC3"
    },
    {
      "bufferView": 1,
      "componentType": 5126,
      "count": 3031,
      "max": [
        0.99980002641677856,
        0.99919998645782471
      ],
      "min": [
        9.9999997473787516e-05,
        0.0012000000569969416
      ],
      "type": "VEC2"
    },
    {
      "bufferView": 0,
      "componentType": 5125,
      "count": 8358,
      "max": [
        3030
      ],
      "min": [
        0
      ],
      "type": "SCALAR"
    },
    {
      "bufferView": 2,
      "byteOffset": 72744,
      "componentType": 5126,
      "count": 3506,
      "max": [
        3.9027397632598877,
        0.81145650148391724,
        1.9764404296875
      ],
      "min": [
        -3.902740478515625,
        -0.81145662069320679,
        -1.9764404296875
      ],
      "type": "VEC3"
    },
    {
      "bufferView": 2,
      "byteOffset": 114816,
      "componentType": 5126,
      "count": 3506,
      "max": [
        0.99985760450363159,
        0.99995672702789307,
        1
      ],
      "min": [
        -0.99990290403366089,
        -0.99985545873641968,
        -1
      ],
      "type": "VEC3"
    },
    {
      "bufferView": 1,
      "byteOffset": 24248,
      "componentType": 5126,
      "count": 3506,
      "max": [
        0.99610000848770142,
        0.99610000848770142
      ],
      "min": [
        0.0020000000949949026,
        0.0038999998942017555
      ],
      "type": "VEC2"
    },
    {
      "bufferView": 0,
      "byteOffset": 33432,
      "componentType": 5125,
      "count": 8652,
      "max": [
        3505
      ],
      "min": [
        0
      ],
      "type": "SCALAR"
    },
    {
      "bufferView": 2,
      "byteOffset": 156888,
      "componentType": 5126,
      "count": 3709,
      "max": [
        3.9056696891784668,
        1.3250710964202881,
        1.1914043426513672
      ],
      "min": [
        -3.9056694507598877,
        -1.3250714540481567,
        -1.1914044618606567
      ],
      "type": "VEC3"
    },
    {
      "bufferView": 2,
      "byteOffset": 201396,
      "componentType": 5126,
      "count": 3709,
      "max": [
        0.99994122982025146,
        0.99987173080444336,
        1
      ],
      "min": [
        -0.9998583197593689,
        -0.99999415874481201,
        -1
      ],
      "type": "VEC3"
    },
    {
      "bufferView": 1,
      "byteOffset": 52296,
      "componentType": 5126,
      "count": 3709,
      "max": [
        0.99610000848770142,
        1
      ],
      "min": [
        0,
        0.0020000000949949026
      ],
      "type": "VEC2"
    },
    {
      "bufferView": 0,
      "byteOffset": 68040,
      "componentType": 5125,
      "count": 8220,
      "max": [
        3708
      ],
      "min": [
        0
      ],
      "type": "SCALAR"
    },
    {
      "bufferView": 2,
      "byteOffset": 245904,
      "componentType": 5126,
      "count": 2984,
      "max": [
        6.3076400756835938,
        1.1963236331939697,
        1.2536842823028564
      ],
      "min": [
        -6.3076381683349609,
        -1.196324348449707,
        -1.2536838054656982
      ],
      "type": "VEC3"
    },
    {
      "bufferView": 2,
      "byteOffset": 281712,
      "componentType": 5126,
      "count": 2984,
      "max": [
        0.99999964237213135,
        0.9999765157699585,
        1
      ],
      "min": [
        -0.99999988079071045,
        -0.99998962879180908,
        -1
      ],
      "type": "VEC3"
    },
    {
      "bufferView": 1,
      "byteOffset": 81968,
      "componentType": 5126,
      "count": 2984,
      "max": [
        0.99610000848770142,
        0.99739998579025269
      ],
      "min": [
        0.0038999998942017555,
        0.0026000000070780516
      ],
      "type": "VEC2"
    },
    {
      "bufferView": 0,
      "byteOffset": 100920,
      "componentType": 5125,
      "count": 7002,
      "max": [
        2983
      ],
      "min": [
        0
      ],
      "type": "SCALAR"
    },
    {
      "bufferView": 2,
      "byteOffset": 317520,
      "componentType": 5126,
      "count": 1379,
      "max": [
        1.3256446123123169,
        0.44396650791168213,
        2.3574392795562744
      ],
      "min": [
        -1.3256446123123169,
        -0.44396662712097168,
        -2.3574392795562744
      ],
      "type": "VEC3"
    },
    {
      "bufferView": 2,
      "byteOffset": 334068,
      "componentType": 5126,
      "count": 1379,
      "max": [
        0.99984967708587646,
        0.99997007846832275,
        1
      ],
      "min": [
        -0.99985277652740479,
        -0.99985301494598389,
        -1
      ],
      "type": "VEC3"
    },
    {
      "bufferView": 1,
      "byteOffset": 105840,
      "componentType": 5126,
      "count": 1379,
      "max": [
        0.99739998579025269,
        0.99220001697540283
      ],
      "min": [
        0,
        0.0038999998942017555
      ],
      "type": "VEC2"
    },
    {
      "bufferView": 0,
      "byteOffset": 128928,
      "componentType": 5125,
      "count": 3564,
      "max": [
        1378
      ],
      "min": [
        0
      ],
      "type": "SCALAR"
    },
    {
      "bufferView": 2,
      "byteOffset": 350616,
      "componentType": 5126,
      "count": 88,
      "max": [
        1.3063027858734131,
        0.46902233362197876,
        0.26425909996032715
      ],
      "min": [
        -1.3063027858734131,
        -0.46902233362197876,
        -0.26425933837890625
      ],
      "type": "VEC3"
    },
    {
      "bufferView": 2,
      "byteOffset": 351672,
      "componentType": 5126,
      "count": 88,
      "max": [
        0.98223507404327393,
        0.9975249171257019,
        0.98478198051452637
      ],
      "min": [
        -0.98224520683288574,
        -0.9975249171257019,
        -0.98478716611862183
      ],
      "type": "VEC3"
    },
    {
      "bufferView": 1,
      "byteOffset": 116872,
      "componentType": 5126,
      "count": 88,
      "max": [
        1,
        5.9182000160217285
      ],
      "min": [
        0,
        -4.9182000160217285
      ],
      "type": "VEC2"
    },
    {
      "bufferView": 0,
      "byteOffset": 143184,
      "componentType": 5125,
      "count": 228,
      "max": [
        87
      ],
      "min": [
        0
      ],
      "type": "SCALAR"
    },
    {
      "bufferView": 2,
      "byteOffset": 352728,
      "componentType": 5126,
      "count": 187,
      "max": [
        0.44076704978942871,
        1.0575124025344849,
        1.057511568069458
      ],
      "min": [
        -0.44076701998710632,
        -1.0575124025344849,
        -1.0575110912322998
      ],
      "type": "VEC3"
    },
    {
      "bufferView": 2,
      "byteOffset": 354972,
      "componentType": 5126,
      "count": 187,
      "max": [
        0.17378175258636475,
        0.99999988079071045,
        1
      ],
      "min": [
        -1,
        -0.99999988079071045,
        -1
      ],
      "type": "VEC3"
    },
    {
      "bufferView": 1,
      "byteOffset": 117576,
      "componentType": 5126,
      "count": 187,
      "max": [
        0.99610000848770142,
        1
      ],
      "min": [
        0.41800001263618469,
        0.041700001806020737
      ],
      "type": "VEC2"
    },
    {
      "bufferView": 0,
      "byteOffset": 144096,
      "componentType": 5125,
      "count": 549,
      "max": [
        186
      ],
      "min": [
        0
      ],
      "type": "SCALAR"
    },
    {
      "bufferView": 2,
      "byteOffset": 357216,
      "componentType": 5126,
      "count": 2989,
      "max": [
        4.7156710624694824,
        0.48640942573547363,
        2.160595178604126
      ],
      "min": [
        -4.7156705856323242,
        -0.48640948534011841,
        -2.1605949401855469
      ],
      "type": "VEC3"
    },
    {
      "bufferView": 2,
      "byteOffset": 393084,
      "componentType": 5126,
      "count": 2989,
      "max": [
        0.62955087423324585,
        1,
        1
      ],
      "min": [
        -1,
        -1,
        -0.99998950958251953
      ],
      "type": "VEC3"
    },
    {
      "bufferView": 1,
      "byteOffset": 119072,
      "componentType": 5126,
      "count": 2989,
      "max": [
        0.82910001277923584,
        0.76579999923706055
      ],
      "min": [
        0.0080000003799796104,
        0.027100000530481339
      ],
      "type": "VEC2"
    },
    {
      "bufferView": 0,
      "byteOffset": 146292,
      "componentType": 5125,
      "count": 16752,
      "max": [
        2988
      ],
      "min": [
        0
      ],
      "type": "SCALAR"
    },
    {
      "bufferView": 2,
      "byteOffset": 428952,
      "componentType": 5126,
      "count": 27777,
      "max": [
        1.2012500762939453,
        0.46944454312324524,
        1.8521761894226074
      ],
      "min": [
        -1.2012495994567871,
        -0.46944454312324524,
        -1.8521759510040283
      ],
      "type": "VEC3"
    },
    {
      "bufferView": 2,
      "byteOffset": 762276,
      "componentType": 5126,
      "count": 27777,
      "max": [
        1,
        1,
        0.5653613805770874
      ],
      "min": [
        -1,
        -1,
        -0.92939651012420654
      ],
      "type": "VEC3"
    },
    {
      "bufferView": 1,
      "byteOffset": 142984,
      "componentType": 5126,
      "count": 27777,
      "max": [
        0.050799999386072159,
        0.21279999613761902
      ],
      "min": [
        0.028300000354647636,
        0.13089999556541443
      ],
      "type": "VEC2"
    },
    {
      "bufferView": 0,
      "byteOffset": 213300,
      "componentType": 5125,
      "count": 165888,
      "max": [
        27776
      ],
      "min": [
        0
      ],
      "type": "SCALAR"
    },
    {
      "bufferView": 2,
      "byteOffset": 1095600,
      "componentType": 5126,
      "count": 10246,
      "max": [
        3.2729842662811279,
        0.33212462067604065,
        0.56445932388305664
      ],
      "min": [
        -3.272984504699707,
        -0.33212485909461975,
        -0.56445908546447754
      ],
      "type": "VEC3"
    },
    {
      "bufferView": 2,
      "byteOffset": 1218552,
      "componentType": 5126,
      "count": 10246,
      "max": [
        1,
        1,
        0.99998784065246582
      ],
      "min": [
        -1,
        -1,
        -1
      ],
      "type": "VEC3"
    },
    {
      "bufferView": 1,
      "byteOffset": 365200,
      "componentType": 5126,
      "count": 10246,
      "max": [
        1,
        1
      ],
      "min": [
        0,
        0
      ],
      "type": "VEC2"
    },
    {
      "bufferView": 0,
      "byteOffset": 876852,
      "componentType": 5125,
      "count": 58368,
      "max": [
        10245
      ],
      "min": [
        0
      ],
      "type": "SCALAR"
    }
  ],
  "asset": {
    "extras": {
      "author": "belopot (https://sketchfab.com/AdamRos)",
      "license": "SKETCHFAB Standard (https://sketchfab.com/licenses)",
      "source": "https://sketchfab.com/3d-models/norinco-a9e326ad5cce44fca83775dd5e3c0bd6",
      "title": "NORINCO"
    },
    "generator": "Sketchfab-7.99.0",
    "version": "2.0"
  },
  "bufferViews": [
    {
      "buffer": 0,
      "byteLength": 1110324,
      "byteOffset": 0,
      "name": "floatBufferViews",
      "target": 34963
    },
    {
      "buffer": 0,
      "byteLength": 447168,
      "byteOffset": 1110324,
      "byteStride": 8,
      "name": "floatBufferViews",
      "target": 34962
    },
    {
      "buffer": 0,
      "byteLength": 1341504,
      "byteOffset": 1557492,
      "byteStride": 12,
      "name": "floatBufferViews",
      "target": 34962
    }
  ],
  "buffers": [
    {
      "byteLength": 2898996,
      "uri": "scene.bin"
    }
  ],
  "materials": [
    {
      "doubleSided": true,
      "emissiveFactor": [
        0,
        0,
        0
      ],
      "name": "NORINCO",
      "pbrMetallicRoughness": {
        "baseColorFactor": [
          0.019599999999999999,
          0.019599999999999999,
          0.019599999999999999,
          1
        ],
        "metallicFactor": 0.40415396341463417,
        "roughnessFactor": 0.50171493902439024
      }
    },
    {
      "doubleSided": true,
      "emissiveFactor": [
        0,
        0,
        0
      ],
      "name": "Material_27",
      "pbrMetallicRoughness": {
        "baseColorFactor": [
          0.019599999999999999,
          0.019599999999999999,
          0.019599999999999999,
          1
        ],
        "metallicFactor": 0.32488567073170732,
        "roughnessFactor": 0.2029344512195122
      }
    },
    {
      "doubleSided": true,
      "emissiveFactor": [
        0,
        0,
        0
      ],
      "name": "Material_25",
      "pbrMetallicRoughness": {
        "baseColorFactor": [
          0.019599999999999999,
          0.019599999999999999,
          0.019599999999999999,
          1
        ],
        "metallicFactor": 0.41025152439024393,
        "roughnessFactor": 0.5078125
      }
    },
    {
      "doubleSided": true,
      "emissiveFactor": [
        0,
        0,
        0
      ],
      "name": "Material_26",
      "pbrMetallicRoughness": {
        "baseColorFactor": [
          0.019599999999999999,
          0.019599999999999999,
          0.019599999999999999,
          1
        ],
        "metallicFactor": 0,
        "roughnessFactor": 0.94648567982487752
      }
    }
  ],
  "meshes": [
    {
      "name": "body_NORINCO_0",
      "primitives": [
        {
          "attributes": {
            "NORMAL": 1,
            "POSITION": 0,
            "TEXCOORD_0": 2
          },
          "indices": 3,
          "material": 0,
          "mode": 4
        }
      ]
    },
    {
      "name": "6_NORINCO_0",
      "primitives": [
        {
          "attributes": {
            "NORMAL": 5,
            "POSITION": 4,
            "TEXCOORD_0": 6
          },
          "indices": 7,
          "material": 0,
          "mode": 4
        }
      ]
    },
    {
      "name": "5_Material #27_0",
      "primitives": [
        {
          "attributes": {
            "NORMAL": 9,
            "POSITION": 8,
            "TEXCOORD_0": 10
          },
          "indices": 11,
          "material": 1,
          "mode": 4
        }
      ]
    },
    {
      "name": "4_Material #27_0",
      "primitives": [
        {
          "attributes": {
            "NORMAL": 13,
            "POSITION": 12,
            "TEXCOORD_0": 14
          },
          "indices": 15,
          "material": 1,
          "mode": 4
        }
      ]
    },
    {
      "name": "1_NORINCO_0",
      "primitives": [
        {
          "attributes": {
            "NORMAL": 17,
            "POSITION": 16,
            "TEXCOORD_0": 18
          },
          "indices": 19,
          "material": 0,
          "mode": 4
        }
      ]
    },
    {
      "name": "Box001_NORINCO_0",
      "primitives": [
        {
          "attributes": {
            "NORMAL": 21,
            "POSITION": 20,
            "TEXCOORD_0": 22
          },
          "indices": 23,
          "material": 0,
          "mode": 4
        }
      ]
    },
    {
      "name": "Object003_NORINCO_0",
      "primitives": [
        {
          "attributes": {
            "NORMAL": 25,
            "POSITION": 24,
            "TEXCOORD_0": 26
          },
          "indices": 27,
          "material": 0,
          "mode": 4
        }
      ]
    },
    {
      "name": "Object001_Material #25_0",
      "primitives": [
        {
          "attributes": {
            "NORMAL": 29,
            "POSITION": 28,
            "TEXCOORD_0": 30
          },
          "indices": 31,
          "material": 2,
          "mode": 4
        }
      ]
    },
    {
      "name": "Object004_Material #25_0",
      "primitives": [
        {
          "attributes": {
            "NORMAL": 33,
            "POSITION": 32,
            "TEXCOORD_0": 34
          },
          "indices": 35,
          "material": 2,
          "mode": 4
        }
      ]
    },
    {
      "name": "Box002_Material #26_0",
      "primitives": [
        {
          "attributes": {
            "NORMAL": 37,
            "POSITION": 36,
            "TEXCOORD_0": 38
          },
          "indices": 39,
          "material": 3,
          "mode": 4
        }
      ]
    }
  ],
  "nodes": [
    {
      "children": [
        1
      ],
      "name": "RootNode (gltf orientation matrix)",
      "rotation": [
        -0.70710678118654746,
        -0,
        -0,
        0.70710678118654757
      ]
    },
    {
      "children": [
        2
      ],
      "name": "RootNode (model correction matrix)"
    },
    {
      "children": [
        3
      ],
      "matrix": [
        1,
        0,
        0,
        0,
        0,
        0,
        1,
        0,
        0,
        -1,
        0,
        0,
        0,
        0,
        0,
        1
      ],
      "name": "NORINCO.fbx"
    },
    {
      "children": [
        4,
        6,
        8,
        10,
        12,
        14,
        16,
        18,
        20,
        22
      ],
      "name": "RootNode"
    },
    {
      "children": [
        5
      ],
      "matrix": [
        1,
        0,
        0,
        0,
        0,
        2.2204460492503131e-16,
        -1,
        0,
        0,
        1,
        2.2204460492503131e-16,
        0,
        16.226995468139648,
        2.1116926670074463,
        -0.1170303001999855,
        1
      ],
      "name": "body"
    },
    {
      "mesh": 0,
      "name": "body_NORINCO_0"
    },
    {
      "children": [
        7
      ],
      "matrix": [
        1,
        0,
        0,
        0,
        0,
        2.2204460492503131e-16,
        -1,
        0,
        0,
        1,
        2.2204460492503131e-16,
        0,
        -5.1800785064697266,
        0.51960462331771851,
        -0.040070008486509323,
        1
      ],
      "name": "6"
    },
    {
      "mesh": 1,
      "name": "6_NORINCO_0"
    },
    {
      "children": [
        9
      ],
      "matrix": [
        1,
        0,
        0,
        0,
        0,
        2.2204460492503131e-16,
        -1,
        0,
        0,
        1,
        2.2204460492503131e-16,
        0,
        -5.1711301803588867,
        1.8705041408538818,
        0.24893322587013245,
        1
      ],
      "name": "5"
    },
    {
      "mesh": 2,
      "name": "5_Material #27_0"
    },
    {
      "children": [
        11
      ],
      "matrix": [
        1,
        0,
        0,
        0,
        0,
        2.2204460492503131e-16,
        -1,
        0,
        0,
        1,
        2.2204460492503131e-16,
        0,
        5.6425490379333496,
        1.7986729145050049,
        -0.10974890738725662,
        1
      ],
      "name": "4"
    },
    {
      "mesh": 3,
      "name": "4_Material #27_0"
    },
    {
      "children": [
        13
      ],
      "matrix": [
        1,
        0,
        0,
        0,
        0,
        2.2204460492503131e-16,
        -1,
        0,
        0,
        1,
        2.2204460492503131e-16,
        0,
        -3.0609259605407715,
        -0.73171496391296387,
        -0.11322323977947235,
        1
      ],
      "name": "1"
    },
    {
      "mesh": 4,
      "name": "1_NORINCO_0"
    },
    {
      "children": [
        15
      ],
      "matrix": [
        1,
        0,
        0,
        0,
        0,
        2.2204460492503131e-16,
        -1,
        0,
        0,
        1,
        2.2204460492503131e-16,
        0,
        -2.9314696788787842,
        -2.9043676853179932,
        -0.095169007778167725,
        1
      ],
      "name": "Box001"
    },
    {
      "mesh": 5,
      "name": "Box001_NORINCO_0"
    },
    {
      "children": [
        17
      ],
      "matrix": [
        1,
        0,
        0,
        0,
        0,
        2.2204460492503131e-16,
        -1,
        0,
        0,
        1,
        2.2204460492503131e-16,
        0,
        -0.85268688201904297,
        1.7986676692962646,
        -0.11018755286931992,
        1
      ],
      "name": "Object003"
    },
    {
      "mesh": 6,
      "name": "Object003_NORINCO_0"
    },
    {
      "children": [
        19
      ],
      "matrix": [
        1,
        0,
        0,
        0,
        0,
        2.2204460492503131e-16,
        -1,
        0,
        0,
        1,
        2.2204460492503131e-16,
        0,
        -13.678872108459473,
        0.26941728591918945,
        0.0017622113227844238,
        1
      ],
      "name": "Object001"
    },
    {
      "mesh": 7,
      "name": "Object001_Material #25_0"
    },
    {
      "children": [
        21
      ],
      "matrix": [
        1,
        0,
        0,
        0,
        0,
        2.2204460492503131e-16,
        -1,
        0,
        0,
        1,
        2.2204460492503131e-16,
        0,
        -7.9452023506164551,
        -2.0099034309387207,
        -0.017525583505630493,
        1
      ],
      "name": "Object004"
    },
    {
      "mesh": 8,
      "name": "Object004_Material #25_0"
    },
    {
      "children": [
        23
      ],
      "matrix": [
        1,
        0,
        0,
        0,
        0,
        2.2204460492503131e-16,
        -1,
        0,
        0,
        1,
        2.2204460492503131e-16,
        0,
        -4.6060495376586914,
        3.4960265159606934,
        -0.023084402084350586,
        1
      ],
      "name": "Box002"
    },
    {
      "mesh": 9,
      "name": "Box002_Material #26_0"
    }
  ],
  "scene": 0,
  "scenes": [
    {
      "name": "OSG_Scene",
      "nodes": [
        0
      ]
    }
  ]
}

