{
  "accessors": [
    {
      "bufferView": 2,
      "componentType": 5126,
      "count": 418,
      "max": [
        10.244161605834961,
        8.3432331085205078,
        4.2115888595581055
      ],
      "min": [
        -10.244160652160645,
        -8.3432331085205078,
        -4.2115879058837891
      ],
      "type": "VEC3"
    },
    {
      "bufferView": 2,
      "byteOffset": 5016,
      "componentType": 5126,
      "count": 418,
      "max": [
        0.9999505877494812,
        0.99935519695281982,
        0.9992600679397583
      ],
      "min": [
        -0.99995064735412598,
        -0.99937283992767334,
        -0.99925655126571655
      ],
      "type": "VEC3"
    },
    {
      "bufferView": 1,
      "componentType": 5126,
      "count": 418,
      "max": [
        0.7314453125,
        0.73828125
      ],
      "min": [
        0,
        0.17041015625
      ],
      "type": "VEC2"
    },
    {
      "bufferView": 1,
      "byteOffset": 3344,
      "componentType": 5126,
      "count": 418,
      "max": [
        0.24324147403240204,
        0.84645730257034302
      ],
      "min": [
        -0.3697303831577301,
        0.23552024364471436
      ],
      "type": "VEC2"
    },
    {
      "bufferView": 1,
      "byteOffset": 6688,
      "componentType": 5126,
      "count": 418,
      "max": [
        0.99495112895965576,
        1.9950385093688965
      ],
      "min": [
        -0.99052101373672485,
        0.056776821613311768
      ],
      "type": "VEC2"
    },
    {
      "bufferView": 1,
      "byteOffset": 10032,
      "componentType": 5126,
      "count": 418,
      "max": [
        0.96996855735778809,
        1.94655442237854
      ],
      "min": [
        -0.99181568622589111,
        0.053502142429351807
      ],
      "type": "VEC2"
    },
    {
      "bufferView": 1,
      "byteOffset": 13376,
      "componentType": 5126,
      "count": 418,
      "max": [
        0.99601918458938599,
        1.9801608324050903
      ],
      "min": [
        -0.98615008592605591,
        -0.0037146806716918945
      ],
      "type": "VEC2"
    },
    {
      "bufferView": 1,
      "byteOffset": 16720,
      "componentType": 5126,
      "count": 418,
      "max": [
        14.62890625,
        -4.234375
      ],
      "min": [
        0,
        -15.591796875
      ],
      "type": "VEC2"
    },
    {
      "bufferView": 1,
      "byteOffset": 20064,
      "componentType": 5126,
      "count": 418,
      "max": [
        0,
        1
      ],
      "min": [
        0,
        1
      ],
      "type": "VEC2"
    },
    {
      "bufferView": 1,
      "byteOffset": 23408,
      "componentType": 5126,
      "count": 418,
      "max": [
        0,
        1
      ],
      "min": [
        0,
        1
      ],
      "type": "VEC2"
    },
    {
      "bufferView": 0,
      "componentType": 5125,
      "count": 1320,
      "max": [
        417
      ],
      "min": [
        0
      ],
      "type": "SCALAR"
    },
    {
      "bufferView": 2,
      "byteOffset": 10032,
      "componentType": 5126,
      "count": 163,
      "max": [
        3.7428748607635498,
        3.9314193725585938,
        0.3895721435546875
      ],
      "min": [
        -3.7428748607635498,
        -3.9314193725585938,
        -0.38957595825195312
      ],
      "type": "VEC3"
    },
    {
      "bufferView": 2,
      "byteOffset": 11988,
      "componentType": 5126,
      "count": 163,
      "max": [
        0.99983775615692139,
        0.99989289045333862,
        0.99999797344207764
      ],
      "min": [
        -0.99983775615692139,
        -0.99989289045333862,
        -0.99999791383743286
      ],
      "type": "VEC3"
    },
    {
      "bufferView": 1,
      "byteOffset": 26752,
      "componentType": 5126,
      "count": 163,
      "max": [
        0.95361328125,
        0.99951171875
      ],
      "min": [
        0.39794921875,
        0.20068359375
      ],
      "type": "VEC2"
    },
    {
      "bufferView": 1,
      "byteOffset": 28056,
      "componentType": 5126,
      "count": 163,
      "max": [
        0.038432158529758453,
        1.2092032432556152
      ],
      "min": [
        -0.23547661304473877,
        0.94700264930725098
      ],
      "type": "VEC2"
    },
    {
      "bufferView": 1,
      "byteOffset": 29360,
      "componentType": 5126,
      "count": 163,
      "max": [
        0.98145544528961182,
        1.9470326900482178
      ],
      "min": [
        -0.9765857458114624,
        0.05551522970199585
      ],
      "type": "VEC2"
    },
    {
      "bufferView": 1,
      "byteOffset": 30664,
      "componentType": 5126,
      "count": 163,
      "max": [
        0.91150939464569092,
        1.9562177658081055
      ],
      "min": [
        -0.91115105152130127,
        0.036276459693908691
      ],
      "type": "VEC2"
    },
    {
      "bufferView": 1,
      "byteOffset": 31968,
      "componentType": 5126,
      "count": 163,
      "max": [
        0.96492898464202881,
        1.2612423896789551
      ],
      "min": [
        -0.24873813986778259,
        0.035071015357971191
      ],
      "type": "VEC2"
    },
    {
      "bufferView": 1,
      "byteOffset": 33272,
      "componentType": 5126,
      "count": 163,
      "max": [
        19.072265625,
        0.990234375
      ],
      "min": [
        7.958984375,
        -14.986328125
      ],
      "type": "VEC2"
    },
    {
      "bufferView": 1,
      "byteOffset": 34576,
      "componentType": 5126,
      "count": 163,
      "max": [
        0,
        1
      ],
      "min": [
        0,
        1
      ],
      "type": "VEC2"
    },
    {
      "bufferView": 1,
      "byteOffset": 35880,
      "componentType": 5126,
      "count": 163,
      "max": [
        0,
        1
      ],
      "min": [
        0,
        1
      ],
      "type": "VEC2"
    },
    {
      "bufferView": 0,
      "byteOffset": 5280,
      "componentType": 5125,
      "count": 276,
      "max": [
        162
      ],
      "min": [
        0
      ],
      "type": "SCALAR"
    },
    {
      "bufferView": 2,
      "byteOffset": 13944,
      "componentType": 5126,
      "count": 354,
      "max": [
        4.3993139266967773,
        3.6295309066772461,
        3.3158378601074219
      ],
      "min": [
        -4.3993134498596191,
        -3.6295309066772461,
        -3.3158302307128906
      ],
      "type": "VEC3"
    },
    {
      "bufferView": 2,
      "byteOffset": 18192,
      "componentType": 5126,
      "count": 354,
      "max": [
        0.99992555379867554,
        0.99999850988388062,
        0.99999779462814331
      ],
      "min": [
        -0.99992525577545166,
        -0.99999850988388062,
        -0.99999779462814331
      ],
      "type": "VEC3"
    },
    {
      "bufferView": 1,
      "byteOffset": 37184,
      "componentType": 5126,
      "count": 354,
      "max": [
        0.998046875,
        1
      ],
      "min": [
        0.001953125,
        0.00048828125
      ],
      "type": "VEC2"
    },
    {
      "bufferView": 1,
      "byteOffset": 40016,
      "componentType": 5126,
      "count": 354,
      "max": [
        0.010028079152107239,
        1.180769681930542
      ],
      "min": [
        -0.20709872245788574,
        0.8777928352355957
      ],
      "type": "VEC2"
    },
    {
      "bufferView": 1,
      "byteOffset": 42848,
      "componentType": 5126,
      "count": 354,
      "max": [
        0.99921298027038574,
        1.9952394962310791
      ],
      "min": [
        -0.99341237545013428,
        0.0284271240234375
      ],
      "type": "VEC2"
    },
    {
      "bufferView": 1,
      "byteOffset": 45680,
      "componentType": 5126,
      "count": 354,
      "max": [
        0.97461593151092529,
        1.9299042224884033
      ],
      "min": [
        -0.95891761779785156,
        0.034068882465362549
      ],
      "type": "VEC2"
    },
    {
      "bufferView": 1,
      "byteOffset": 48512,
      "componentType": 5126,
      "count": 354,
      "max": [
        1.0059676170349121,
        1.9623384475708008
      ],
      "min": [
        -0.96233844757080078,
        0.035134375095367432
      ],
      "type": "VEC2"
    },
    {
      "bufferView": 1,
      "byteOffset": 51344,
      "componentType": 5126,
      "count": 354,
      "max": [
        19.9609375,
        1
      ],
      "min": [
        0.0390625,
        -18.990234375
      ],
      "type": "VEC2"
    },
    {
      "bufferView": 1,
      "byteOffset": 54176,
      "componentType": 5126,
      "count": 354,
      "max": [
        0,
        1
      ],
      "min": [
        0,
        1
      ],
      "type": "VEC2"
    },
    {
      "bufferView": 1,
      "byteOffset": 57008,
      "componentType": 5126,
      "count": 354,
      "max": [
        0,
        1
      ],
      "min": [
        0,
        1
      ],
      "type": "VEC2"
    },
    {
      "bufferView": 0,
      "byteOffset": 6384,
      "componentType": 5125,
      "count": 990,
      "max": [
        353
      ],
      "min": [
        0
      ],
      "type": "SCALAR"
    },
    {
      "bufferView": 2,
      "byteOffset": 22440,
      "componentType": 5126,
      "count": 6529,
      "max": [
        33.514606475830078,
        4.0930829048156738,
        8.9841537475585938
      ],
      "min": [
        -33.514606475830078,
        -4.0930848121643066,
        -8.9841537475585938
      ],
      "type": "VEC3"
    },
    {
      "bufferView": 2,
      "byteOffset": 100788,
      "componentType": 5126,
      "count": 6529,
      "max": [
        0.9999699592590332,
        0.99999946355819702,
        0.99999755620956421
      ],
      "min": [
        -0.99999767541885376,
        -0.99999862909317017,
        -0.99999934434890747
      ],
      "type": "VEC3"
    },
    {
      "bufferView": 1,
      "byteOffset": 59840,
      "componentType": 5126,
      "count": 6529,
      "max": [
        0.99560546875,
        0.9990234375
      ],
      "min": [
        0.0009765625,
        0.00146484375
      ],
      "type": "VEC2"
    },
    {
      "bufferView": 1,
      "byteOffset": 112072,
      "componentType": 5126,
      "count": 6529,
      "max": [
        0.22338247299194336,
        2.1387929916381836
      ],
      "min": [
        -0.36515742540359497,
        0.23424744606018066
      ],
      "type": "VEC2"
    },
    {
      "bufferView": 1,
      "byteOffset": 164304,
      "componentType": 5126,
      "count": 6529,
      "max": [
        0.99495112895965576,
        1.9972572326660156
      ],
      "min": [
        -0.99718868732452393,
        -0.0040802955627441406
      ],
      "type": "VEC2"
    },
    {
      "bufferView": 1,
      "byteOffset": 216536,
      "componentType": 5126,
      "count": 6529,
      "max": [
        1.0059311389923096,
        1.9890847206115723
      ],
      "min": [
        -0.99636602401733398,
        0.013999700546264648
      ],
      "type": "VEC2"
    },
    {
      "bufferView": 1,
      "byteOffset": 268768,
      "componentType": 5126,
      "count": 6529,
      "max": [
        1.006041407585144,
        1.9959516525268555
      ],
      "min": [
        -0.99717026948928833,
        -0.0056209564208984375
      ],
      "type": "VEC2"
    },
    {
      "bufferView": 1,
      "byteOffset": 321000,
      "componentType": 5126,
      "count": 6529,
      "max": [
        19.912109375,
        0.98046875
      ],
      "min": [
        0.01953125,
        -18.970703125
      ],
      "type": "VEC2"
    },
    {
      "bufferView": 1,
      "byteOffset": 373232,
      "componentType": 5126,
      "count": 6529,
      "max": [
        0,
        1
      ],
      "min": [
        0,
        1
      ],
      "type": "VEC2"
    },
    {
      "bufferView": 1,
      "byteOffset": 425464,
      "componentType": 5126,
      "count": 6529,
      "max": [
        0,
        1
      ],
      "min": [
        0,
        1
      ],
      "type": "VEC2"
    },
    {
      "bufferView": 0,
      "byteOffset": 10344,
      "componentType": 5125,
      "count": 16653,
      "max": [
        6528
      ],
      "min": [
        0
      ],
      "type": "SCALAR"
    }
  ],
  "asset": {
    "extras": {
      "author": "belopot (https://sketchfab.com/AdamRos)",
      "license": "SKETCHFAB Standard (https://sketchfab.com/licenses)",
      "source": "https://sketchfab.com/3d-models/dshk-ad9ca1e8f5984045a54d0c7f88532890",
      "title": "DSHK"
    },
    "generator": "Sketchfab-7.98.1",
    "version": "2.0"
  },
  "bufferViews": [
    {
      "buffer": 0,
      "byteLength": 76956,
      "byteOffset": 0,
      "name": "floatBufferViews",
      "target": 34963
    },
    {
      "buffer": 0,
      "byteLength": 477696,
      "byteOffset": 76956,
      "byteStride": 8,
      "name": "floatBufferViews",
      "target": 34962
    },
    {
      "buffer": 0,
      "byteLength": 179136,
      "byteOffset": 554652,
      "byteStride": 12,
      "name": "floatBufferViews",
      "target": 34962
    }
  ],
  "buffers": [
    {
      "byteLength": 733788,
      "uri": "scene.bin"
    }
  ],
  "images": [
    {
      "uri": "textures/Material_740_baseColor.png"
    }
  ],
  "materials": [
    {
      "doubleSided": true,
      "emissiveFactor": [
        0,
        0,
        0
      ],
      "name": "Material_740",
      "pbrMetallicRoughness": {
        "baseColorFactor": [
          1,
          1,
          1,
          1
        ],
        "baseColorTexture": {
          "index": 0,
          "texCoord": 0
        },
        "metallicFactor": 0.3126905487804878,
        "roughnessFactor": 0.24561737804878048
      }
    }
  ],
  "meshes": [
    {
      "name": "MG_Material #740_0",
      "primitives": [
        {
          "attributes": {
            "NORMAL": 1,
            "POSITION": 0,
            "TEXCOORD_0": 2,
            "TEXCOORD_1": 3,
            "TEXCOORD_2": 4,
            "TEXCOORD_3": 5,
            "TEXCOORD_4": 6,
            "TEXCOORD_5": 7,
            "TEXCOORD_6": 8,
            "TEXCOORD_7": 9
          },
          "indices": 10,
          "material": 0,
          "mode": 4
        }
      ]
    },
    {
      "name": "MG_Material #740_0",
      "primitives": [
        {
          "attributes": {
            "NORMAL": 12,
            "POSITION": 11,
            "TEXCOORD_0": 13,
            "TEXCOORD_1": 14,
            "TEXCOORD_2": 15,
            "TEXCOORD_3": 16,
            "TEXCOORD_4": 17,
            "TEXCOORD_5": 18,
            "TEXCOORD_6": 19,
            "TEXCOORD_7": 20
          },
          "indices": 21,
          "material": 0,
          "mode": 4
        }
      ]
    },
    {
      "name": "MG_Material #740_0",
      "primitives": [
        {
          "attributes": {
            "NORMAL": 23,
            "POSITION": 22,
            "TEXCOORD_0": 24,
            "TEXCOORD_1": 25,
            "TEXCOORD_2": 26,
            "TEXCOORD_3": 27,
            "TEXCOORD_4": 28,
            "TEXCOORD_5": 29,
            "TEXCOORD_6": 30,
            "TEXCOORD_7": 31
          },
          "indices": 32,
          "material": 0,
          "mode": 4
        }
      ]
    },
    {
      "name": "MG_Material #740_0",
      "primitives": [
        {
          "attributes": {
            "NORMAL": 34,
            "POSITION": 33,
            "TEXCOORD_0": 35,
            "TEXCOORD_1": 36,
            "TEXCOORD_2": 37,
            "TEXCOORD_3": 38,
            "TEXCOORD_4": 39,
            "TEXCOORD_5": 40,
            "TEXCOORD_6": 41,
            "TEXCOORD_7": 42
          },
          "indices": 43,
          "material": 0,
          "mode": 4
        }
      ]
    }
  ],
  "nodes": [
    {
      "children": [
        1
      ],
      "name": "RootNode (gltf orientation matrix)",
      "rotation": [
        -0.70710678118654746,
        -0,
        -0,
        0.70710678118654757
      ]
    },
    {
      "children": [
        2
      ],
      "name": "RootNode (model correction matrix)"
    },
    {
      "children": [
        3
      ],
      "matrix": [
        1,
        0,
        0,
        0,
        0,
        0,
        1,
        0,
        0,
        -1,
        0,
        0,
        0,
        0,
        0,
        1
      ],
      "name": "DSHK.fbx"
    },
    {
      "children": [
        4,
        6,
        8,
        10
      ],
      "name": "RootNode"
    },
    {
      "children": [
        5
      ],
      "matrix": [
        1,
        0,
        0,
        0,
        0,
        2.2204460492503131e-16,
        -1,
        0,
        0,
        1,
        2.2204460492503131e-16,
        0,
        -19.895961761474609,
        -0.27206301689147949,
        -3.0436913967132568,
        1
      ],
      "name": "MG"
    },
    {
      "mesh": 0,
      "name": "MG_Material #740_0"
    },
    {
      "children": [
        7
      ],
      "matrix": [
        1,
        0,
        0,
        0,
        0,
        2.2204460492503131e-16,
        -1,
        0,
        0,
        1,
        2.2204460492503131e-16,
        0,
        -3.4768927097320557,
        -7.7644767761230469,
        1.974465012550354,
        1
      ],
      "name": "MG"
    },
    {
      "mesh": 1,
      "name": "MG_Material #740_0"
    },
    {
      "children": [
        9
      ],
      "matrix": [
        1,
        0,
        0,
        0,
        0,
        2.2204460492503131e-16,
        -1,
        0,
        0,
        1,
        2.2204460492503131e-16,
        0,
        -4.1928577423095703,
        -4.4379005432128906,
        1.9747799634933472,
        1
      ],
      "name": "MG"
    },
    {
      "mesh": 2,
      "name": "MG_Material #740_0"
    },
    {
      "children": [
        11
      ],
      "matrix": [
        1,
        0,
        0,
        0,
        0,
        2.2204460492503131e-16,
        -1,
        0,
        0,
        1,
        2.2204460492503131e-16,
        0,
        3.5325703620910645,
        2.4927291870117188,
        1.0341883897781372,
        1
      ],
      "name": "MG"
    },
    {
      "mesh": 3,
      "name": "MG_Material #740_0"
    }
  ],
  "samplers": [
    {
      "magFilter": 9729,
      "minFilter": 9987,
      "wrapS": 10497,
      "wrapT": 10497
    }
  ],
  "scene": 0,
  "scenes": [
    {
      "name": "OSG_Scene",
      "nodes": [
        0
      ]
    }
  ],
  "textures": [
    {
      "sampler": 0,
      "source": 0
    }
  ]
}

